<?xml version="1.0" encoding="UTF-8"?>
<svg version="1.1" xmlns="http://www.w3.org/2000/svg" width="512" height="512">
<path d="M0 0 C1.13953644 -0.00453111 2.27907289 -0.00906223 3.45314074 -0.01373065 C7.2387002 -0.02630345 11.02411447 -0.02475887 14.80969238 -0.02310181 C17.5376031 -0.02800984 20.26550389 -0.03584258 22.9934082 -0.04345703 C29.61593403 -0.05999984 36.23842423 -0.06556356 42.86096901 -0.06668179 C48.25143908 -0.06763568 53.64189751 -0.07176295 59.03236389 -0.07808304 C74.35466672 -0.09567892 89.67694164 -0.10492477 104.99925464 -0.10342209 C106.23573382 -0.10330222 106.23573382 -0.10330222 107.49719238 -0.10317993 C108.73520225 -0.10305729 108.73520225 -0.10305729 109.99822241 -0.10293217 C123.35677348 -0.10212026 136.71521152 -0.12123832 150.07372993 -0.14945666 C163.82872535 -0.17828042 177.58366584 -0.19199169 191.33869219 -0.19026911 C199.04549977 -0.18960836 206.75218895 -0.19496091 214.45896912 -0.21662521 C221.02380448 -0.23496274 227.5884678 -0.23908265 234.15331787 -0.22560637 C237.49371322 -0.21913851 240.8335145 -0.2209647 244.17391968 -0.23631287 C279.57768771 -0.38832506 307.65905028 7.64500791 333.68664551 32.51742554 C355.71012351 55.10480483 363.38319847 83.53815045 363.33630371 114.2762146 C363.34065855 116.1731842 363.34584426 118.07015204 363.35179138 119.96711731 C363.36511102 125.08923852 363.36576782 130.21128562 363.36322808 135.33342075 C363.36215337 139.62468258 363.3670546 143.91592971 363.3718335 148.20718837 C363.38290483 158.34039723 363.38337979 168.47356903 363.37731934 178.60678101 C363.37128399 189.02456862 363.38358491 199.44222103 363.4048894 209.85998559 C363.42256398 218.83620821 363.42849748 227.81238803 363.42525166 236.78862739 C363.42344765 242.13556331 363.42598609 247.48240281 363.4399662 252.82932281 C363.45263527 257.86259976 363.45051548 262.89566761 363.43755531 267.92894173 C363.43520944 269.76377244 363.43785172 271.5986183 363.44617844 273.43343163 C363.50773557 288.06636036 362.24099695 302.02676893 356.93664551 315.82992554 C356.63661621 316.62092651 356.33658691 317.41192749 356.02746582 318.22689819 C345.27481033 345.47024705 323.41635293 366.15811663 296.78039551 377.76742554 C277.59793831 385.72015258 258.07908269 385.56427728 237.69152832 385.54208374 C235.04036961 385.54643726 232.38922209 385.55155924 229.73806763 385.55757141 C223.31480724 385.57024677 216.8915888 385.57212108 210.46831802 385.56977115 C205.24047828 385.56797961 200.01265116 385.56975542 194.78481293 385.57399559 C194.03743275 385.57459078 193.29005258 385.57518597 192.52002452 385.57579919 C191.00113243 385.5770111 189.48224033 385.57822523 187.96334824 385.57944157 C173.75510238 385.5902897 159.54688033 385.58816769 145.33863315 385.58205672 C132.3805404 385.57689107 119.4225229 385.58813862 106.46444502 385.60715494 C93.11503482 385.62659327 79.76566011 385.63477881 66.41623569 385.63103169 C58.93924147 385.62912857 51.46231124 385.63151961 43.98532867 385.64574623 C37.61928203 385.65773785 31.25333878 385.6589788 24.88729051 385.64695606 C21.64837932 385.64112108 18.40969272 385.64148502 15.17078781 385.65195847 C-20.782218 385.75975282 -50.57535435 378.64014418 -77.25085449 353.32992554 C-87.57180827 342.5017454 -95.38475505 329.95168347 -100.68835449 316.01742554 C-100.97017578 315.29224731 -101.25199707 314.56706909 -101.5423584 313.81991577 C-106.64704665 299.74164271 -107.38333206 285.65780108 -107.34240723 270.86801147 C-107.34812491 268.97693991 -107.3550945 267.08587178 -107.36320496 265.19480896 C-107.38099972 260.10568223 -107.37999367 255.01672921 -107.37426257 249.92758083 C-107.37114996 245.65637157 -107.37728621 241.38519469 -107.38330132 237.11399007 C-107.39730082 227.02464504 -107.39582426 216.93538476 -107.38439941 206.84603882 C-107.37293011 196.48955027 -107.3869845 186.13332106 -107.41379589 175.77686667 C-107.4360584 166.83785821 -107.44256642 157.89893051 -107.43671948 148.95989633 C-107.43337293 143.64193012 -107.43560957 138.32412993 -107.4529705 133.00618744 C-107.46860633 127.99904928 -107.46430269 122.99229062 -107.44566536 117.98516655 C-107.4420246 116.16491447 -107.44495305 114.34463321 -107.45555115 112.52440834 C-107.62983192 80.07224475 -97.1659696 53.16399374 -74.68835449 29.64242554 C-54.7258401 10.17828183 -27.70678456 -0.08244415 0 0 Z M-17.75085449 138.47836304 C-21.2196481 143.70437446 -21.70669413 149.11672121 -20.57897949 155.20883179 C-18.76566391 161.4696714 -14.44565384 165.92538918 -8.93835449 169.26742554 C-1.8592568 171.60101737 5.31357318 171.55217555 12.69055176 171.5262146 C14.54352371 171.53147156 14.54352371 171.53147156 16.43392944 171.53683472 C19.79761743 171.54409209 23.161057 171.54244286 26.52473068 171.53607655 C30.05990663 171.53098109 33.59507262 171.53571779 37.13024902 171.53884888 C43.06475713 171.54247825 48.99921531 171.53771652 54.93371582 171.52816772 C61.7757737 171.51728514 68.61771235 171.52081145 75.45976734 171.53182054 C81.35474315 171.54092283 87.24968324 171.54216435 93.14466381 171.5369432 C96.65649047 171.53383962 100.16826125 171.53336947 103.68008423 171.54001617 C107.59768234 171.54691416 111.51514897 171.53732897 115.43273926 171.5262146 C116.5831369 171.53026306 117.73353455 171.53431152 118.91879272 171.53848267 C129.19901539 171.48461973 136.58988138 170.80256613 144.17492676 163.48226929 C147.80174633 159.22469848 148.80490652 155.28466047 149.49914551 149.82992554 C148.58693687 142.4019409 145.72934861 137.17314198 139.94055176 132.45883179 C135.77901054 129.82001667 132.17243991 129.0163705 127.27519226 129 C126.11872696 128.99147003 124.96226166 128.98294006 123.77075195 128.97415161 C121.88096619 128.97551117 121.88096619 128.97551117 119.95300293 128.97689819 C118.60565316 128.97091028 117.25830682 128.96410412 115.91096497 128.95654297 C112.25792942 128.93890124 108.60498762 128.93418833 104.9519136 128.9329114 C102.66714937 128.93148806 100.38240885 128.92721498 98.09765053 128.92191696 C90.11973182 128.90342185 82.14187987 128.89524559 74.16394043 128.89682007 C66.73905911 128.89802093 59.31446874 128.87692827 51.88966101 128.84533274 C45.50561003 128.81913869 39.12165388 128.8084541 32.7375496 128.80973089 C28.92882796 128.81023966 25.1203649 128.80460399 21.31169701 128.78337479 C17.72711591 128.76393964 14.14303863 128.76390334 10.55843925 128.77840805 C8.62530946 128.7814795 6.69217933 128.76485612 4.75912476 128.74752808 C-4.89798718 128.81707187 -11.60678871 130.6313225 -17.75085449 138.47836304 Z M-15.93835449 221.26742554 C-19.82123757 226.6603187 -21.21021759 231.5963234 -20.93835449 238.26742554 C-19.7344535 243.93168102 -17.12311778 249.06487896 -12.26647949 252.42367554 C-7.54665606 255.24750152 -3.80471476 256.39028924 1.62324142 256.3988533 C2.99676179 256.40461502 2.99676179 256.40461502 4.39803004 256.41049314 C5.40035017 256.40962665 6.4026703 256.40876017 7.43536377 256.40786743 C8.50302766 256.41083855 9.57069155 256.41380968 10.67070889 256.41687083 C14.26033887 256.42556577 17.84993552 256.42706676 21.4395752 256.42855835 C24.00843375 256.43318595 26.57729162 256.43821053 29.14614868 256.44360352 C36.13382768 256.45718042 43.12150094 256.46321057 50.10919094 256.46761417 C54.47323923 256.47037772 58.8372853 256.47461528 63.20133209 256.47911835 C75.28666927 256.49131024 87.37200468 256.50160967 99.45734787 256.50499344 C100.61738962 256.50532279 100.61738962 256.50532279 101.80086656 256.50565879 C102.57606686 256.50587707 103.35126716 256.50609535 104.14995837 256.50632024 C105.72078117 256.5067637 107.29160396 256.50721027 108.86242676 256.50765991 C109.64160734 256.50788134 110.42078792 256.50810277 111.22358003 256.50833091 C123.84707406 256.51227833 136.47051034 256.52973097 149.09398207 256.55301943 C162.0576519 256.57674225 175.02129276 256.58919571 187.98498464 256.59036136 C195.26226652 256.5912776 202.53947317 256.59701715 209.81673431 256.61518097 C216.662126 256.63220677 223.50737273 256.63382761 230.35277939 256.62504196 C232.86501574 256.62427043 235.3772597 256.62862947 237.88947678 256.63850021 C241.31981941 256.65118772 244.74965364 256.64535977 248.17999268 256.63491821 C249.17338992 256.64297462 250.16678716 256.65103102 251.19028735 256.65933156 C259.21530699 256.60222867 266.16533966 255.16373139 272.06164551 249.26742554 C275.94452859 243.87453237 277.3335086 238.93852767 277.06164551 232.26742554 C275.85774452 226.60317006 273.2464088 221.46997211 268.38977051 218.11117554 C263.66994707 215.28734955 259.92800578 214.14456183 254.50004959 214.13599777 C253.58436935 214.13215663 252.6686891 214.12831548 251.72526097 214.12435794 C250.72294084 214.12522442 249.72062071 214.1260909 248.68792725 214.12698364 C247.62026335 214.12401252 246.55259946 214.1210414 245.45258212 214.11798024 C241.86295215 214.10928531 238.2733555 214.10778432 234.68371582 214.10629272 C232.11485726 214.10166513 229.5459994 214.09664054 226.97714233 214.09124756 C219.98946333 214.07767066 213.00179007 214.0716405 206.01410007 214.0672369 C201.65005179 214.06447336 197.28600571 214.06023579 192.92195892 214.05573273 C180.83662175 214.04354084 168.75128634 214.03324141 156.66594315 214.02985764 C155.50590139 214.02952829 155.50590139 214.02952829 154.32242446 214.02919228 C153.54722416 214.02897401 152.77202386 214.02875573 151.97333264 214.02853084 C150.40250985 214.02808737 148.83168705 214.02764081 147.26086426 214.02719116 C146.48168368 214.02696973 145.7025031 214.0267483 144.89971098 214.02652016 C132.27621695 214.02257275 119.65278067 214.0051201 107.02930894 213.98183164 C94.06563912 213.95810882 81.10199826 213.94565536 68.13830638 213.94448972 C60.86102449 213.94357347 53.58381785 213.93783393 46.3065567 213.9196701 C39.46116501 213.9026443 32.61591829 213.90102347 25.77051163 213.90980911 C23.25827528 213.91058064 20.74603132 213.90622161 18.23381424 213.89635086 C14.8034716 213.88366335 11.37363737 213.8894913 7.94329834 213.89993286 C6.9499011 213.89187646 5.95650385 213.88382005 4.93300366 213.87551951 C-3.09201597 213.93262241 -10.04204864 215.37111969 -15.93835449 221.26742554 Z " fill="#000000" transform="translate(127.9383544921875,20.732574462890625)"/>
<path d="M0 0 C0.94354741 -0.00706559 1.88709482 -0.01413118 2.85923457 -0.02141088 C4.40940615 -0.01778826 4.40940615 -0.01778826 5.99089432 -0.01409245 C7.64139278 -0.02194746 7.64139278 -0.02194746 9.32523465 -0.02996117 C13.02544944 -0.04500569 16.72552649 -0.04566731 20.42576981 -0.04633427 C23.07345029 -0.05395279 25.72111908 -0.06233066 28.36879349 -0.07155704 C35.5713428 -0.09440754 42.77386265 -0.10232778 49.97644329 -0.10738349 C54.47450258 -0.11064062 58.97255331 -0.11716322 63.47060776 -0.12438488 C75.92652867 -0.1439513 88.38244163 -0.16035512 100.83837891 -0.16326141 C102.03403199 -0.16354277 102.03403199 -0.16354277 103.25383969 -0.16382981 C104.86973715 -0.16419606 106.48563461 -0.16455975 108.10153207 -0.16492092 C109.30472018 -0.16519514 109.30472018 -0.16519514 110.53221512 -0.16547489 C111.33532062 -0.16565544 112.13842612 -0.16583599 112.96586815 -0.16602201 C125.9774014 -0.16956322 138.9887691 -0.19658202 152.00024495 -0.23397278 C165.36168571 -0.27206166 178.72304435 -0.29141893 192.08454061 -0.29172093 C199.58543868 -0.29230539 207.08613931 -0.30078984 214.58698654 -0.32971859 C220.97451957 -0.35424039 227.36178314 -0.36151019 233.74935052 -0.34647106 C237.00722477 -0.33930499 240.26445676 -0.34287094 243.52229309 -0.36288166 C247.05802768 -0.38327512 250.59238475 -0.37282774 254.12810135 -0.35466862 C255.15262618 -0.36786858 256.17715101 -0.38106855 257.23272204 -0.39466852 C264.64078002 -0.30778385 269.44731399 1.59597288 274.83569026 6.70272928 C279.19443664 11.51919789 280.83282544 16.5773511 280.62205887 23.04912472 C279.62588309 30.18628283 276.81031431 35.6198856 271.19237137 40.10381222 C265.41022446 43.66205647 260.21339651 43.54754022 253.59170914 43.52748775 C251.95217969 43.53428442 251.95217969 43.53428442 250.27952844 43.5412184 C246.61005248 43.55389781 242.94072426 43.55223972 239.27122879 43.55058956 C236.64310896 43.55657259 234.0149909 43.56337761 231.38687515 43.57094479 C224.98465619 43.58755128 218.58247405 43.59305418 212.18023535 43.59416954 C206.97542132 43.59512021 201.77061944 43.59923143 196.56580925 43.60557079 C181.80541152 43.62318246 167.04504286 43.63240981 152.28463455 43.63090985 C151.48904854 43.63082993 150.69346253 43.63075002 149.87376785 43.63066769 C149.07720909 43.63058593 148.28065032 43.63050416 147.4599534 43.63041992 C134.55197231 43.62960711 121.64410793 43.64874389 108.7361606 43.67694442 C95.47864987 43.70567982 82.22119605 43.71948435 68.96365339 43.71775687 C61.52204765 43.71709318 54.08056426 43.72257614 46.63898659 43.74411297 C40.30273878 43.76233346 33.96666878 43.7666651 27.6304061 43.75309412 C24.3989366 43.7465686 21.16787855 43.74860982 17.93642807 43.76380062 C14.42937116 43.77921907 10.92320944 43.76996615 7.41617203 43.75453854 C5.89208081 43.76996923 5.89208081 43.76996923 4.33719987 43.78571165 C-3.48255804 43.70971489 -8.85768427 42.02604948 -14.49903488 36.51006222 C-18.49574687 30.57209012 -20.89439361 24.54839157 -19.68653488 17.26006222 C-17.54843714 9.78944689 -13.53514393 5.08165602 -6.86811519 1.20185322 C-4.39878817 0.1358416 -2.68175302 0.0064247 0 0 Z " fill="#000000" transform="translate(125.6865348815918,447.7399377822876)"/>
</svg>
